<svg xmlns="http://www.w3.org/2000/svg" width="40" height="40" viewBox="0 0 40 40">
    <defs>
        <linearGradient id="a" x1="50%" x2="50%" y1="0%" y2="100%">
            <stop offset="0%" stop-color="#FBDD8E"/>
            <stop offset="100%" stop-color="#FF9F16"/>
        </linearGradient>
    </defs>
    <g fill="none" fill-rule="evenodd">
        <circle cx="20" cy="20" r="20" fill="#914CEB"/>
        <path fill="url(#a)" d="M24.089 10.005a.449.449 0 0 0-.07.021c-1.985.625-3.515 2.432-4.344 4.43-.713 1.72-.933 3.618-.324 5.106-.803-.041-1.418-.311-1.791-.866-.476-.707-.63-2.04.028-4.246a.456.456 0 0 0-.145-.48.449.449 0 0 0-.497-.053c-3.894 2.02-5.457 6.038-4.801 9.55C12.801 26.98 15.734 30 20.542 30c2.246 0 4.187-.786 5.52-2.25 1.334-1.466 2.043-3.586 1.925-6.178-.118-2.992-1.723-4.46-2.82-5.759-.548-.649-.968-1.25-1.128-2.016-.16-.767-.068-1.738.529-3.16a.457.457 0 0 0-.055-.458.45.45 0 0 0-.424-.174z"/>
        <path fill="#000" d="M20 40c13.333-2.102 20-8.768 20-20S33.333 2.102 20 0v40z" opacity=".169"/>
    </g>
</svg>
