<svg xmlns="http://www.w3.org/2000/svg" xmlns:xlink="http://www.w3.org/1999/xlink" width="24" height="24" viewBox="0 0 24 24">
    <defs>
        <path id="a" d="M21.5 6.5h-3.17l-1.83-2h-6v2h5.12l1.83 2h4.05v12h-16v-9h-2v9c0 1.1.9 2 2 2h16c1.1 0 2-.9 2-2v-12c0-1.1-.9-2-2-2zm-13 8c0 2.76 2.24 5 5 5s5-2.24 5-5-2.24-5-5-5-5 2.24-5 5zm5-3c1.65 0 3 1.35 3 3s-1.35 3-3 3-3-1.35-3-3 1.35-3 3-3zm-8-5h3v-2h-3v-3h-2v3h-3v2h3v3h2v-3z"/>
    </defs>
    <g fill="none" fill-rule="evenodd">
        <mask id="b" fill="#fff">
            <use xlink:href="#a"/>
        </mask>
        <g fill="#000" fill-opacity=".54" mask="url(#b)">
            <path d="M0 0h24v24H0z"/>
        </g>
    </g>
</svg>
