<?xml version="1.0" encoding="UTF-8"?>
<svg width="19px" height="19px" viewBox="0 0 19 19" version="1.1" xmlns="http://www.w3.org/2000/svg" xmlns:xlink="http://www.w3.org/1999/xlink">
    <!-- Generator: Sketch 53.2 (72643) - https://sketchapp.com -->
    <title>icon/action/label_24px</title>
    <desc>Created with Sketch.</desc>
    <defs>
        <path d="M17.13,5.84 C16.77,5.33 16.17,5 15.5,5 L4.5,5.01 C3.4,5.01 2.5,5.9 2.5,7 L2.5,17 C2.5,18.1 3.4,18.99 4.5,18.99 L15.5,19 C16.17,19 16.77,18.67 17.13,18.16 L21.5,12 L17.13,5.84 Z M15.5,17 L4.5,17 L4.5,7 L15.5,7 L19.05,12 L15.5,17 Z" id="path-1"></path>
    </defs>
    <g id="Feed" stroke="none" stroke-width="1" fill="none" fill-rule="evenodd">
        <g id="V1Feed_MobileHome-Copy-4" transform="translate(-29.000000, -92.000000)">
            <g id="icon/action/label_24px" transform="translate(20.000000, 83.000000)">
                <g transform="translate(17.000000, 17.000000) rotate(-135.000000) translate(-17.000000, -17.000000) translate(5.000000, 5.000000)">
                    <mask id="mask-2" fill="white">
                        <use xlink:href="#path-1"></use>
                    </mask>
                    <g fill-rule="nonzero"></g>
                    <g id="✱-/-Color-/-Icons-/-Black-/-Inactive" mask="url(#mask-2)" fill="#000000" fill-opacity="0.54" fill-rule="evenodd">
                        <rect id="Rectangle" x="0" y="0" width="24" height="24"></rect>
                    </g>
                </g>
                <circle id="Oval" fill="#6F6F73" fill-rule="evenodd" cx="15.5" cy="15.5" r="1.5"></circle>
            </g>
        </g>
    </g>
</svg>