<svg xmlns="http://www.w3.org/2000/svg" width="40" height="40" viewBox="0 0 40 40">
    <g fill="none" fill-rule="evenodd">
        <circle cx="20" cy="20" r="20" fill="#914CEB"/>
        <path fill="#F9D470" d="M20.17 31C16.936 28.288 12 23.203 12 18.966 12 14.56 15.574 11 20 11s8 3.56 8 7.966c0 4.068-4.68 9.492-7.83 12.034zm3.823-12.958a.188.188 0 0 0-.143-.131l-2.546-.384-1.143-2.424A.168.168 0 0 0 20 15a.168.168 0 0 0-.162.103l-1.143 2.424-2.546.384a.164.164 0 0 0-.143.13c-.018.066 0 .141.045.197l1.84 1.882-.438 2.658a.208.208 0 0 0 .072.187.192.192 0 0 0 .187.019L20 21.72l2.278 1.254c.027.019.054.019.08.019.036 0 .072-.01.108-.037.053-.038.08-.113.071-.188L22.1 20.11l1.84-1.881a.185.185 0 0 0 .054-.187z"/>
        <path fill="#000" d="M20 40c13.333-2.102 20-8.768 20-20S33.333 2.102 20 0v40z" opacity=".169"/>
    </g>
</svg>
