<?xml version="1.0" encoding="UTF-8"?>
<svg width="16px" height="15px" viewBox="0 0 16 15" version="1.1" xmlns="http://www.w3.org/2000/svg" xmlns:xlink="http://www.w3.org/1999/xlink">
    <!-- Generator: Sketch 53.2 (72643) - https://sketchapp.com -->
    <title>noun_comment_2304114</title>
    <desc>Created with Sketch.</desc>
    <g id="Feed-+-Comments" stroke="none" stroke-width="1" fill="none" fill-rule="evenodd">
        <g id="Artboard" transform="translate(-24.000000, -33.000000)" fill="#757575">
            <g id="noun_comment_2304114" transform="translate(24.000000, 33.000000)">
                <path d="M0.65615142,0 L15.3438486,0 C15.6971609,0 16,0.255251869 16,0.612604485 L16,10.5674274 C16,10.92478 15.6971609,11.2310822 15.3438486,11.2310822 L13.3753943,11.2310822 L13.3753943,14.2941046 C13.3753943,15.0598603 12.7192429,15.2130114 12.2649842,14.7025076 L9.23659306,11.2310822 L0.65615142,11.2310822 C0.302839117,11.2310822 0,10.92478 0,10.5674274 L0,0.612604485 C0,0.255251869 0.302839117,0 0.65615142,0 Z M1.54025848,1.55379691 L1.54025848,9.50388078 L9.48477418,9.50388078 L12.1577915,12.6792573 L12.1577915,9.50388078 L14.4512038,9.50388078 L14.4512038,1.55379691 L1.54025848,1.55379691 Z" id="Shape"></path>
            </g>
        </g>
    </g>
</svg>
