<?xml version="1.0" encoding="UTF-8"?>
<svg width="26px" height="15px" viewBox="0 0 26 15" version="1.1" xmlns="http://www.w3.org/2000/svg" xmlns:xlink="http://www.w3.org/1999/xlink">
    <!-- Generator: Sketch 51.3 (57544) - http://www.bohemiancoding.com/sketch -->
    <title>Group 18</title>
    <desc>Created with Sketch.</desc>
    <defs>
        <path d="M7.53225806,9.03539427 C5.31387097,9.03539427 0.896057348,10.1445878 0.896057348,12.3534946 L0.896057348,14.0125448 L14.1684588,14.0125448 L14.1684588,12.3534946 C14.1684588,10.1445878 9.75064516,9.03539427 7.53225806,9.03539427 Z M3.11444444,12.1164875 C3.91078853,11.5666308 5.83528674,10.9314516 7.53225806,10.9314516 C9.22922939,10.9314516 11.1537276,11.5666308 11.9500717,12.1164875 L3.11444444,12.1164875 Z M7.53225806,7.37634409 C9.36195341,7.37634409 10.8503584,5.88793907 10.8503584,4.05824373 C10.8503584,2.22854839 9.36195341,0.740143369 7.53225806,0.740143369 C5.70256272,0.740143369 4.21415771,2.22854839 4.21415771,4.05824373 C4.21415771,5.88793907 5.70256272,7.37634409 7.53225806,7.37634409 Z M7.53225806,2.63620072 C8.31912186,2.63620072 8.95430108,3.27137993 8.95430108,4.05824373 C8.95430108,4.84510753 8.31912186,5.48028674 7.53225806,5.48028674 C6.74539427,5.48028674 6.11021505,4.84510753 6.11021505,4.05824373 C6.11021505,3.27137993 6.74539427,2.63620072 7.53225806,2.63620072 Z M14.2063799,9.09227599 C15.3060932,9.88862007 16.0645161,10.9504122 16.0645161,12.3534946 L16.0645161,14.0125448 L19.8566308,14.0125448 L19.8566308,12.3534946 C19.8566308,10.4384767 16.5385305,9.34824373 14.2063799,9.09227599 Z M13.2204301,7.37634409 C15.0501254,7.37634409 16.5385305,5.88793907 16.5385305,4.05824373 C16.5385305,2.22854839 15.0501254,0.740143369 13.2204301,0.740143369 C12.7084946,0.740143369 12.2344803,0.863387097 11.7983871,1.07195341 C12.3956452,1.91569892 12.7464158,2.94905018 12.7464158,4.05824373 C12.7464158,5.16743728 12.3956452,6.20078853 11.7983871,7.04453405 C12.2344803,7.25310036 12.7084946,7.37634409 13.2204301,7.37634409 Z" id="path-1"></path>
    </defs>
    <g id="Game-+-Profile" stroke="none" stroke-width="1" fill="none" fill-rule="evenodd">
        <g id="Profile_v3_public" transform="translate(-1048.000000, -278.000000)">
            <g id="Group-6" transform="translate(1029.000000, 263.000000)">
                <g id="Group-18" transform="translate(19.000000, 15.000000)">
                    <g id="Group-3" transform="translate(20.000000, 2.500000)" stroke="#FFFFFF" stroke-linecap="square" stroke-width="1.5">
                        <path d="M2.5,7.95807864e-13 L2.5,5" id="Line-5"></path>
                        <path d="M2.5,1.13686838e-13 L2.5,5" id="Line-5" transform="translate(2.500000, 2.500000) rotate(-90.000000) translate(-2.500000, -2.500000) "></path>
                    </g>
                    <g id="icon/image/add_a_photo_24px-copy-6">
                        <mask id="mask-2" fill="white">
                            <use xlink:href="#path-1"></use>
                        </mask>
                        <use id="icon/social/people_outline_24px" fill="#FFFFFF" fill-rule="nonzero" xlink:href="#path-1"></use>
                    </g>
                </g>
            </g>
        </g>
    </g>
</svg>
