<svg xmlns="http://www.w3.org/2000/svg" width="40" height="40" viewBox="0 0 40 40">
    <defs>
        <linearGradient id="a" x1="50%" x2="45.229%" y1="0%" y2="100%">
            <stop offset="0%" stop-color="#F7DBA2"/>
            <stop offset="100%" stop-color="#FF9F16"/>
        </linearGradient>
    </defs>
    <g fill="none" fill-rule="evenodd">
        <circle cx="20" cy="20" r="20" fill="#914CEB"/>
        <path fill="url(#a)" fill-rule="nonzero" d="M17.84 9.775a.5.5 0 0 0-.455-.293h-6.918L11.893.8a.5.5 0 0 0-.87-.41L.25 12.69a.5.5 0 0 0 .375.83h6.907l-1.425 8.683a.5.5 0 0 0 .87.41L17.75 10.31a.5.5 0 0 0 .09-.535z" transform="translate(11 9)"/>
        <path fill="#000" d="M20 40c13.333-2.102 20-8.768 20-20S33.333 2.102 20 0v40z" opacity=".169"/>
    </g>
</svg>
