<?xml version="1.0" encoding="UTF-8"?>
<svg width="18px" height="18px" viewBox="0 0 18 18" version="1.1" xmlns="http://www.w3.org/2000/svg" xmlns:xlink="http://www.w3.org/1999/xlink">
    <!-- Generator: Sketch 54.1 (76490) - https://sketchapp.com -->
    <title>icon/action/face_24px copy 2</title>
    <desc>Created with Sketch.</desc>
    <defs>
        <path d="M9.16666667,15 L10.8333333,15 L10.8333333,13.3333333 L9.16666667,13.3333333 L9.16666667,15 Z M10,1.66666667 C5.4,1.66666667 1.66666667,5.4 1.66666667,10 C1.66666667,14.6 5.4,18.3333333 10,18.3333333 C14.6,18.3333333 18.3333333,14.6 18.3333333,10 C18.3333333,5.4 14.6,1.66666667 10,1.66666667 Z M10,16.6666667 C6.325,16.6666667 3.33333333,13.675 3.33333333,10 C3.33333333,6.325 6.325,3.33333333 10,3.33333333 C13.675,3.33333333 16.6666667,6.325 16.6666667,10 C16.6666667,13.675 13.675,16.6666667 10,16.6666667 Z M10,5 C8.15833333,5 6.66666667,6.49166667 6.66666667,8.33333333 L8.33333333,8.33333333 C8.33333333,7.41666667 9.08333333,6.66666667 10,6.66666667 C10.9166667,6.66666667 11.6666667,7.41666667 11.6666667,8.33333333 C11.6666667,10 9.16666667,9.79166667 9.16666667,12.5 L10.8333333,12.5 C10.8333333,10.625 13.3333333,10.4166667 13.3333333,8.33333333 C13.3333333,6.49166667 11.8416667,5 10,5 Z" id="path-1"></path>
    </defs>
    <g id="Business-Pages" stroke="none" stroke-width="1" fill="none" fill-rule="evenodd">
        <g id="Jolly-Pro-Mobile---User-Menu" transform="translate(-116.000000, -177.000000)">
            <g id="icon/action/help_outline_24px" transform="translate(115.000000, 176.000000)">
                <mask id="mask-2" fill="white">
                    <use xlink:href="#path-1"></use>
                </mask>
                <g fill-rule="nonzero"></g>
                <g id="✱-/-Color-/-Icons-/-Black-/-Inactive" mask="url(#mask-2)" fill="#000000" fill-opacity="0.54" fill-rule="evenodd">
                    <rect id="Rectangle" x="0" y="0" width="20" height="20"></rect>
                </g>
            </g>
        </g>
    </g>
</svg>