<?xml version="1.0" encoding="UTF-8"?>
<svg width="16px" height="20px" viewBox="0 0 16 20" version="1.1" xmlns="http://www.w3.org/2000/svg" xmlns:xlink="http://www.w3.org/1999/xlink">
    <!-- Generator: Sketch 54.1 (76490) - https://sketchapp.com -->
    <title>Group 5</title>
    <desc>Created with Sketch.</desc>
    <g id="Feed" stroke="none" stroke-width="1" fill="none" fill-rule="evenodd">
        <g id="Feed_Updated_cred" transform="translate(-1094.000000, -115.000000)">
            <g id="Group-5" transform="translate(1094.000000, 115.000000)">
                <g id="Group-4" transform="translate(8.000000, 10.000000) scale(1, -1) translate(-8.000000, -10.000000) ">
                    <path d="M0.830954788,0.400418411 L7.74846908,3.73381286 C7.90741078,3.81040329 8.09258922,3.81040329 8.25153092,3.73381286 L15.1690452,0.400418411 C15.4573274,0.26150172 15.8036405,0.382586367 15.9425572,0.67086854 C15.9803657,0.749329375 16,0.83530419 16,0.92239946 L16,15.5112132 C16,15.7374263 15.8683522,15.942955 15.662866,16.0375474 L8.24228983,19.4534954 C8.0885185,19.5242817 7.9114815,19.5242817 7.75771017,19.4534954 L0.337134035,16.0375474 C0.131647772,15.942955 -9.71497616e-16,15.7374263 -9.99200722e-16,15.5112132 L-3.33066907e-16,0.92239946 C-3.72256458e-16,0.602392494 0.259416902,0.342975592 0.579423868,0.342975592 C0.666519139,0.342975592 0.752493953,0.362609901 0.830954788,0.400418411 Z" id="Rectangle" fill="#FDCC47"></path>
                    <path d="M0.830954788,0.400418411 L7.74846908,3.73381286 C7.90741078,3.81040329 8.09258922,3.81040329 8.25153092,3.73381286 L15.1690452,0.400418411 C15.4573274,0.26150172 15.8036405,0.382586367 15.9425572,0.67086854 C15.9803657,0.749329375 16,0.83530419 16,0.92239946 L16,5.23778899 C16,5.45324836 15.8804477,5.65091477 15.6896243,5.75096061 L8.26904816,9.64145701 C8.10055899,9.72979335 7.89944101,9.72979335 7.73095184,9.64145701 L0.310375712,5.75096061 C0.119552311,5.65091477 3.55498745e-14,5.45324836 3.61932706e-14,5.23778899 L4.57411886e-14,0.92239946 C4.64125573e-14,0.602392494 0.259416902,0.342975592 0.579423868,0.342975592 C0.666519139,0.342975592 0.752493953,0.362609901 0.830954788,0.400418411 Z" id="Rectangle" fill="#FF9F16"></path>
                </g>
            </g>
        </g>
    </g>
</svg>