<?xml version="1.0" encoding="UTF-8"?>
<svg width="18px" height="16px" viewBox="0 0 18 16" version="1.1" xmlns="http://www.w3.org/2000/svg" xmlns:xlink="http://www.w3.org/1999/xlink">
    <!-- Generator: Sketch 51.3 (57544) - http://www.bohemiancoding.com/sketch -->
    <title>logout</title>
    <desc>Created with Sketch.</desc>
    <defs></defs>
    <g id="web-version" stroke="none" stroke-width="1" fill="none" fill-rule="evenodd">
        <g id="navigation" transform="translate(-1146.000000, -303.000000)" fill="#898E94" fill-rule="nonzero">
            <g id="logout" transform="translate(1146.000000, 303.000000)">
                <path d="M1.88075561,7.36363636 L0.573789847,7.36363636 C0.258205431,7.36363636 0,7.73181818 0,8.18181818 C0,8.63181818 0.258205431,9 0.573789847,9 L1.88075561,9 C2.19634002,9 2.45454545,8.63181818 2.45454545,8.18181818 C2.45454545,7.73181818 2.19952774,7.36363636 1.88075561,7.36363636 Z" id="Shape"></path>
                <path d="M13.7217818,7.30758522 L9.93094443,3.4631363 C9.68060611,3.2092576 9.27291228,3.2092576 9.0189977,3.4631363 C8.76508312,3.717015 8.76865938,4.1304746 9.0189977,4.38798014 L11.7119228,7.11898961 L4.7346362,7.11898961 C4.38058629,7.11898961 4.09090909,7.41276354 4.09090909,7.77182056 C4.09090909,8.13087759 4.38058629,8.42465151 4.7346362,8.42465151 L11.7119228,8.42465151 L9.0189977,11.155661 C8.76865938,11.4095397 8.76865938,11.8229993 9.0189977,12.0805048 C9.14416686,12.2074442 9.3086749,12.2727273 9.47318294,12.2727273 C9.63769097,12.2727273 9.80219901,12.2074442 9.92736817,12.0805048 L13.7182056,8.2360559 C13.9721201,7.97492352 13.9721201,7.56146392 13.7217818,7.30758522 Z" id="Shape"></path>
                <path d="M17.3331765,0 L12.9395507,0 C12.5727978,0 12.2727273,0.299448708 12.2727273,0.665441574 C12.2727273,1.03143444 12.5727978,1.33088315 12.9395507,1.33088315 L16.6663531,1.33088315 L16.6663531,14.2145714 L12.9395507,14.2145714 C12.5727978,14.2145714 12.2727273,14.5140201 12.2727273,14.880013 C12.2727273,15.2460058 12.5727978,15.5454545 12.9395507,15.5454545 L17.3331765,15.5454545 C17.6999294,15.5454545 18,15.2460058 18,14.880013 L18,0.665441574 C18,0.299448708 17.6999294,0 17.3331765,0 Z" id="Shape"></path>
            </g>
        </g>
    </g>
</svg>