<?xml version="1.0" encoding="UTF-8"?>
<svg width="18px" height="18px" viewBox="0 0 18 18" version="1.1" xmlns="http://www.w3.org/2000/svg" xmlns:xlink="http://www.w3.org/1999/xlink">
    <!-- Generator: Sketch 53.2 (72643) - https://sketchapp.com -->
    <title>icon/content/filter_list_24px copy</title>
    <desc>Created with Sketch.</desc>
    <defs>
        <path d="M10,1.66666667 C5.4,1.66666667 1.66666667,5.4 1.66666667,10 C1.66666667,14.6 5.4,18.3333333 10,18.3333333 C14.6,18.3333333 18.3333333,14.6 18.3333333,10 C18.3333333,5.4 14.6,1.66666667 10,1.66666667 Z M14.1666667,10.8333333 L10.8333333,10.8333333 L10.8333333,14.1666667 L9.16666667,14.1666667 L9.16666667,10.8333333 L5.83333333,10.8333333 L5.83333333,9.16666667 L9.16666667,9.16666667 L9.16666667,5.83333333 L10.8333333,5.83333333 L10.8333333,9.16666667 L14.1666667,9.16666667 L14.1666667,10.8333333 Z" id="path-1"></path>
    </defs>
    <g id="Feed" stroke="none" stroke-width="1" fill="none" fill-rule="evenodd">
        <g id="V1Feed_MobileHome-Copy" transform="translate(-56.000000, -74.000000)">
            <g id="icon/content/add_circle_24px" transform="translate(55.000000, 73.000000)">
                <mask id="mask-2" fill="white">
                    <use xlink:href="#path-1"></use>
                </mask>
                <g fill-rule="nonzero"></g>
                <g id="✱-/-Color-/-Icons-/-Selected-/-On-Primary-/-Active-" mask="url(#mask-2)" fill="#FFFFFF" fill-rule="evenodd">
                    <rect id="Rectangle-3" x="0" y="0" width="20" height="20"></rect>
                </g>
            </g>
        </g>
    </g>
</svg>