<svg xmlns="http://www.w3.org/2000/svg" width="40" height="40" viewBox="0 0 40 40">
    <g fill="none" fill-rule="evenodd">
        <circle cx="20" cy="20" r="20" fill="#914CEB"/>
        <path fill="#F9D470" fill-rule="nonzero" d="M19.99 30c-.045 0-.088 0-.11-.022-3.94-2.4-5.888-4.934-6.807-6.645-.7-1.31-1.073-2.822-1.073-4.4v-5.222c0-.067.022-.133.088-.178.043-.044.13-.066.197-.044.46.111.897.178 1.335.178 3.567 0 6.172-3.534 6.194-3.578.044-.045.11-.089.175-.089.066 0 .131.044.175.089.044.044 3.327 4.489 7.551 3.422.066-.022.132 0 .197.045.044.044.088.11.088.177v5.223c0 1.577-.372 3.088-1.073 4.4-.919 1.71-2.845 4.244-6.807 6.622-.043.022-.087.022-.13.022z"/>
        <path fill="#000" d="M20 40c13.333-2.102 20-8.768 20-20S33.333 2.102 20 0v40z" opacity=".169"/>
    </g>
</svg>
