<?xml version="1.0" encoding="UTF-8"?>
<svg width="18px" height="18px" viewBox="0 0 18 18" version="1.1" xmlns="http://www.w3.org/2000/svg" xmlns:xlink="http://www.w3.org/1999/xlink">
    <!-- Generator: Sketch 54.1 (76490) - https://sketchapp.com -->
    <title>icon/action/face_24px copy</title>
    <desc>Created with Sketch.</desc>
    <defs>
        <path d="M16.1935073,10.8166667 C16.2268406,10.55 16.2518406,10.2833333 16.2518406,10 C16.2518406,9.71666667 16.2268406,9.45 16.1935073,9.18333333 L17.9518406,7.80833333 C18.110174,7.68333333 18.1518406,7.45833333 18.0518406,7.275 L16.385174,4.39166667 C16.310174,4.25833333 16.1685073,4.18333333 16.0185073,4.18333333 C15.9685073,4.18333333 15.9185073,4.19166667 15.8768406,4.20833333 L13.8018406,5.04166667 C13.3685073,4.70833333 12.9018406,4.43333333 12.3935073,4.225 L12.0768406,2.01666667 C12.0518406,1.81666667 11.8768406,1.66666667 11.6685073,1.66666667 L8.33517395,1.66666667 C8.12684062,1.66666667 7.95184062,1.81666667 7.92684062,2.01666667 L7.61017395,4.225 C7.10184062,4.43333333 6.63517395,4.71666667 6.20184062,5.04166667 L4.12684062,4.20833333 C4.07684062,4.19166667 4.02684062,4.18333333 3.97684062,4.18333333 C3.83517395,4.18333333 3.69350729,4.25833333 3.61850729,4.39166667 L1.95184062,7.275 C1.84350729,7.45833333 1.89350729,7.68333333 2.05184062,7.80833333 L3.81017395,9.18333333 C3.77684062,9.45 3.75184062,9.725 3.75184062,10 C3.75184062,10.275 3.77684062,10.55 3.81017395,10.8166667 L2.05184062,12.1916667 C1.89350729,12.3166667 1.85184062,12.5416667 1.95184062,12.725 L3.61850729,15.6083333 C3.69350729,15.7416667 3.83517395,15.8166667 3.98517395,15.8166667 C4.03517395,15.8166667 4.08517395,15.8083333 4.12684062,15.7916667 L6.20184062,14.9583333 C6.63517395,15.2916667 7.10184062,15.5666667 7.61017395,15.775 L7.92684062,17.9833333 C7.95184062,18.1833333 8.12684062,18.3333333 8.33517395,18.3333333 L11.6685073,18.3333333 C11.8768406,18.3333333 12.0518406,18.1833333 12.0768406,17.9833333 L12.3935073,15.775 C12.9018406,15.5666667 13.3685073,15.2833333 13.8018406,14.9583333 L15.8768406,15.7916667 C15.9268406,15.8083333 15.9768406,15.8166667 16.0268406,15.8166667 C16.1685073,15.8166667 16.310174,15.7416667 16.385174,15.6083333 L18.0518406,12.725 C18.1518406,12.5416667 18.110174,12.3166667 17.9518406,12.1916667 L16.1935073,10.8166667 Z M14.5435073,9.39166667 C14.5768406,9.65 14.585174,9.825 14.585174,10 C14.585174,10.175 14.5685073,10.3583333 14.5435073,10.6083333 L14.4268406,11.55 L15.1685073,12.1333333 L16.0685073,12.8333333 L15.485174,13.8416667 L14.4268406,13.4166667 L13.560174,13.0666667 L12.810174,13.6333333 C12.4518406,13.9 12.110174,14.1 11.7685073,14.2416667 L10.885174,14.6 L10.7518406,15.5416667 L10.585174,16.6666667 L9.41850729,16.6666667 L9.26017395,15.5416667 L9.12684062,14.6 L8.24350729,14.2416667 C7.88517395,14.0916667 7.55184062,13.9 7.21850729,13.65 L6.46017395,13.0666667 L5.57684062,13.425 L4.51850729,13.85 L3.93517395,12.8416667 L4.83517395,12.1416667 L5.57684062,11.5583333 L5.46017395,10.6166667 C5.43517395,10.3583333 5.41850729,10.1666667 5.41850729,10 C5.41850729,9.83333333 5.43517395,9.64166667 5.46017395,9.39166667 L5.57684062,8.45 L4.83517395,7.86666667 L3.93517395,7.16666667 L4.51850729,6.15833333 L5.57684062,6.58333333 L6.44350729,6.93333333 L7.19350729,6.36666667 C7.55184062,6.1 7.89350729,5.9 8.23517395,5.75833333 L9.11850729,5.4 L9.25184062,4.45833333 L9.41850729,3.33333333 L10.5768406,3.33333333 L10.735174,4.45833333 L10.8685073,5.4 L11.7518406,5.75833333 C12.110174,5.90833333 12.4435073,6.1 12.7768406,6.35 L13.535174,6.93333333 L14.4185073,6.575 L15.4768406,6.15 L16.060174,7.15833333 L15.1685073,7.86666667 L14.4268406,8.45 L14.5435073,9.39166667 Z M10.0018406,6.66666667 C8.16017395,6.66666667 6.66850729,8.15833333 6.66850729,10 C6.66850729,11.8416667 8.16017395,13.3333333 10.0018406,13.3333333 C11.8435073,13.3333333 13.335174,11.8416667 13.335174,10 C13.335174,8.15833333 11.8435073,6.66666667 10.0018406,6.66666667 Z M10.0018406,11.6666667 C9.08517395,11.6666667 8.33517395,10.9166667 8.33517395,10 C8.33517395,9.08333333 9.08517395,8.33333333 10.0018406,8.33333333 C10.9185073,8.33333333 11.6685073,9.08333333 11.6685073,10 C11.6685073,10.9166667 10.9185073,11.6666667 10.0018406,11.6666667 Z" id="path-1"></path>
    </defs>
    <g id="Business-Pages" stroke="none" stroke-width="1" fill="none" fill-rule="evenodd">
        <g id="Jolly-Pro-Mobile---User-Menu" transform="translate(-116.000000, -137.000000)">
            <g id="icon/action/settings_24px" transform="translate(115.000000, 136.000000)">
                <mask id="mask-2" fill="white">
                    <use xlink:href="#path-1"></use>
                </mask>
                <g fill-rule="nonzero"></g>
                <g id="✱-/-Color-/-Icons-/-Black-/-Inactive" mask="url(#mask-2)" fill="#000000" fill-opacity="0.54" fill-rule="evenodd">
                    <rect id="Rectangle" x="0" y="0" width="20" height="20"></rect>
                </g>
            </g>
        </g>
    </g>
</svg>