<?xml version="1.0" encoding="UTF-8"?>
<svg width="18px" height="18px" viewBox="0 0 18 18" version="1.1" xmlns="http://www.w3.org/2000/svg" xmlns:xlink="http://www.w3.org/1999/xlink">
    <!-- Generator: Sketch 51.3 (57544) - http://www.bohemiancoding.com/sketch -->
    <title>noun_Share_1807096</title>
    <desc>Created with Sketch.</desc>
    <defs></defs>
    <g id="Game-+-Profile" stroke="none" stroke-width="1" fill="none" fill-rule="evenodd">
        <g id="Profile_v3_private" transform="translate(-1195.000000, -276.000000)" fill="#1876D0" fill-rule="nonzero">
            <g id="noun_Share_1807096" transform="translate(1195.000000, 276.000000)">
                <path d="M14.8114286,6.34090909 C16.56,6.34090909 18,4.90909091 18,3.17045455 C18,1.43181818 16.56,0 14.8114286,0 C13.0628571,0 11.6228571,1.43181818 11.6228571,3.17045455 C11.6228571,3.33409091 11.6434286,3.49772727 11.664,3.66136364 L7.28228571,5.89090909 C6.50057143,5.15454545 5.472,4.70454545 4.32,4.70454545 C1.93371429,4.70454545 0,6.62727273 0,9 C0,11.3727273 1.93371429,13.2954545 4.32,13.2954545 C5.41028571,13.2954545 6.39771429,12.8863636 7.13828571,12.2318182 L11.6434286,14.5227273 C11.6434286,14.625 11.6228571,14.7272727 11.6228571,14.8295455 C11.6228571,16.5681818 13.0628571,18 14.8114286,18 C16.56,18 18,16.5681818 18,14.8295455 C18,13.0909091 16.56,11.6590909 14.8114286,11.6590909 C13.7417143,11.6590909 12.7954286,12.1909091 12.2194286,12.9886364 L8.16685714,10.9227273 C8.45485714,10.35 8.64,9.69545455 8.64,9 C8.64,8.36590909 8.496,7.77272727 8.24914286,7.24090909 L12.3222857,5.175 C12.9188571,5.87045455 13.8034286,6.34090909 14.8114286,6.34090909 Z M14.8114286,1.63636364 C15.6548571,1.63636364 16.3542857,2.33181818 16.3542857,3.17045455 C16.3542857,4.00909091 15.6548571,4.70454545 14.8114286,4.70454545 C13.968,4.70454545 13.2685714,4.00909091 13.2685714,3.17045455 C13.2685714,2.33181818 13.968,1.63636364 14.8114286,1.63636364 Z M4.32,11.6590909 C2.83885714,11.6590909 1.64571429,10.4727273 1.64571429,9 C1.64571429,7.52727273 2.83885714,6.34090909 4.32,6.34090909 C5.80114286,6.34090909 6.99428571,7.52727273 6.99428571,9 C6.99428571,10.4727273 5.80114286,11.6590909 4.32,11.6590909 Z M14.8114286,13.2954545 C15.6548571,13.2954545 16.3542857,13.9909091 16.3542857,14.8295455 C16.3542857,15.6681818 15.6548571,16.3636364 14.8114286,16.3636364 C13.968,16.3636364 13.2685714,15.6681818 13.2685714,14.8295455 C13.2685714,13.9909091 13.968,13.2954545 14.8114286,13.2954545 Z" id="Shape"></path>
            </g>
        </g>
    </g>
</svg>