<?xml version="1.0" encoding="UTF-8"?>
<svg width="18px" height="18px" viewBox="0 0 18 18" version="1.1" xmlns="http://www.w3.org/2000/svg" xmlns:xlink="http://www.w3.org/1999/xlink">
    <!-- Generator: Sketch 51.3 (57544) - http://www.bohemiancoding.com/sketch -->
    <title>user</title>
    <desc>Created with Sketch.</desc>
    <defs></defs>
    <g id="web-version" stroke="none" stroke-width="1" fill="none" fill-rule="evenodd">
        <g id="navigation" transform="translate(-1146.000000, -191.000000)" fill="#898E94" fill-rule="nonzero">
            <g id="user" transform="translate(1146.000000, 191.000000)">
                <path d="M12.15,11.0999883 C13.8749942,10.0499766 14.9999766,8.17500584 14.9999766,6.00001169 C15.0000117,2.7 12.2999766,0 9,0 C5.70002338,0 2.99998831,2.7 2.99998831,6.00001169 C2.99998831,8.17500584 4.12497078,10.0500117 5.84996493,11.0999883 C2.84997662,12.2250058 0.599976623,14.85 0,18 L1.50001169,18 C2.25,14.5500117 5.32502922,11.9999883 9,11.9999883 C12.6749708,11.9999883 15.75,14.5499766 16.4999883,18 L18,18 C17.4000234,14.7749942 15.1500234,12.15 12.15,11.0999883 Z M4.5,6.00001169 C4.5,3.52502922 6.52501753,1.50001169 9,1.50001169 C11.4749825,1.50001169 13.5,3.52502922 13.5,6.00001169 C13.5,8.47499416 11.4749825,10.5000117 9,10.5000117 C6.52501753,10.5000117 4.5,8.47499416 4.5,6.00001169 Z" id="Shape"></path>
            </g>
        </g>
    </g>
</svg>