<?xml version="1.0" encoding="UTF-8"?>
<svg width="24px" height="24px" viewBox="0 0 24 24" version="1.1" xmlns="http://www.w3.org/2000/svg" xmlns:xlink="http://www.w3.org/1999/xlink">
    <!-- Generator: Sketch 52.5 (67469) - http://www.bohemiancoding.com/sketch -->
    <title>Artboard</title>
    <desc>Created with Sketch.</desc>
    <defs>
        <path d="M5.92307692,7.43181818 C3.94307692,7.43181818 0,8.38909091 0,10.2954545 L0,11.7272727 L11.8461538,11.7272727 L11.8461538,10.2954545 C11.8461538,8.38909091 7.90307692,7.43181818 5.92307692,7.43181818 Z M1.98,10.0909091 C2.69076923,9.61636364 4.40846154,9.06818182 5.92307692,9.06818182 C7.43769231,9.06818182 9.15538462,9.61636364 9.86615385,10.0909091 L1.98,10.0909091 Z M5.92307692,6 C7.55615385,6 8.88461538,4.71545455 8.88461538,3.13636364 C8.88461538,1.55727273 7.55615385,0.272727273 5.92307692,0.272727273 C4.29,0.272727273 2.96153846,1.55727273 2.96153846,3.13636364 C2.96153846,4.71545455 4.29,6 5.92307692,6 Z M5.92307692,1.90909091 C6.62538462,1.90909091 7.19230769,2.45727273 7.19230769,3.13636364 C7.19230769,3.81545455 6.62538462,4.36363636 5.92307692,4.36363636 C5.22076923,4.36363636 4.65384615,3.81545455 4.65384615,3.13636364 C4.65384615,2.45727273 5.22076923,1.90909091 5.92307692,1.90909091 Z M11.88,7.48090909 C12.8615385,8.16818182 13.5384615,9.08454545 13.5384615,10.2954545 L13.5384615,11.7272727 L15.9896974,11.7272727 C15.9896974,10.5699028 15.9896974,9.99121787 15.9896974,9.99121787 C15.9896974,8.72727273 14.6391831,8.26748412 14.6141038,8.24986169 C14.3423664,8.05892075 12.976493,7.59727748 11.88,7.48090909 Z M11,6 C12.6330769,6 13.9615385,4.71545455 13.9615385,3.13636364 C13.9615385,1.55727273 12.6330769,0.272727273 11,0.272727273 C10.5430769,0.272727273 10.12,0.379090909 9.73076923,0.559090909 C10.2638462,1.28727273 10.5769231,2.17909091 10.5769231,3.13636364 C10.5769231,4.09363636 10.2638462,4.98545455 9.73076923,5.71363636 C10.12,5.89363636 10.5430769,6 11,6 Z" id="path-1"></path>
    </defs>
    <g id="Style-Guide" stroke="none" stroke-width="1" fill="none" fill-rule="evenodd" opacity=".54">
        <g id="Artboard">
            <g id="VerifiedCW_Icon" transform="translate(1.000000, 7.000000)">
                <g id="icon/image/add_a_photo_24px-copy-6">
                    <mask id="mask-2" fill="white">
                        <use xlink:href="#path-1"></use>
                    </mask>
                    <use id="icon/social/people_outline_24px" fill="#000000" fill-rule="nonzero" xlink:href="#path-1"></use>
                    <g id="↳-Color" mask="url(#mask-2)" fill="#000000" fill-opacity="0.38">
                        <g transform="translate(-1.692308, -3.818182)" id="Rectangle">
                            <rect x="0" y="0" width="20.3076923" height="19.6363636"></rect>
                        </g>
                    </g>
                </g>
                <polygon id="Shape" fill="#000000" fill-rule="nonzero" points="16.5125171 4.94492369 17.7542103 6.1791639 20.7182522 3.27272727 22 4.54678169 19.0359581 7.45321831 17.7542103 8.72727273 16.4724624 7.45321831 15.2307692 6.2189781"></polygon>
            </g>
        </g>
    </g>
</svg>
