<?xml version="1.0" encoding="UTF-8"?>
<svg width="494px" height="315px" viewBox="0 0 494 315" version="1.1" xmlns="http://www.w3.org/2000/svg" xmlns:xlink="http://www.w3.org/1999/xlink">
    <!-- Generator: Sketch 54.1 (76490) - https://sketchapp.com -->
    <title>Jolly_Logo</title>
    <desc>Created with Sketch.</desc>
    <g id="Jolly_Logo" stroke="none" stroke-width="1" fill="none" fill-rule="evenodd">
        <g id="Group" transform="translate(6.000000, 3.000000)" fill="#1575D9">
            <path d="M199.5,205 C166.639057,205 140,178.360943 140,145.5 C140,112.639057 166.639057,86 199.5,86 C232.360943,86 259,112.639057 259,145.5 C259,178.360943 232.360943,205 199.5,205 Z M199.5,175.5 C216.068542,175.5 229.5,162.068542 229.5,145.5 C229.5,128.931458 216.068542,115.5 199.5,115.5 C182.931458,115.5 169.5,128.931458 169.5,145.5 C169.5,162.068542 182.931458,175.5 199.5,175.5 Z" id="Combined-Shape"></path>
            <path d="M484.5,86 L485,86 L485,236 C485,276.316787 452.316787,309 412,309 C411.666138,309 411.3328,308.997759 411,308.993291 L411,278.988601 C411.332415,278.996187 411.665762,279 412,279 C435.748244,279 455,259.748244 455,236 L455,204.997943 C422.535767,204.730729 396.269271,178.464233 396.002057,146 L396,146 L396,86 L425.5,86 L425.5,146 C425.768301,162.17158 438.82842,175.231657 455,175.495917 L455,86 L484.5,86 Z" id="Combined-Shape"></path>
            <path d="M89.49949,94.1054707 L89.49949,0 L119,0 L119,146 C118.729353,178.630738 92.1936513,205 59.4989714,205 C26.8042916,205 0.268589409,178.630738 -4.24237837e-12,146 L29.5025354,146 C29.7695186,162.337921 43.0971343,175.5 59.4989714,175.5 C75.9008086,175.5 89.2284243,162.337921 89.4954074,146 L89.49949,94.1054707 Z" id="Combined-Shape"></path>
            <rect id="Rectangle-Copy" x="281" y="0" width="30" height="204"></rect>
            <rect id="Rectangle-Copy-2" x="339" y="0" width="30" height="204"></rect>
        </g>
    </g>
</svg>